<?xml version="1.0" encoding="UTF-8" standalone="no"?>
<!-- Created with Inkscape (http://www.inkscape.org/) -->

<svg
   width="193.11011"
   height="139.1832"
   viewBox="0 0 193.11012 139.1832"
   version="1.1"
   id="svg1"
   xml:space="preserve"
   xmlns="http://www.w3.org/2000/svg"
   xmlns:svg="http://www.w3.org/2000/svg"
   xmlns:rdf="http://www.w3.org/1999/02/22-rdf-syntax-ns#"
   xmlns:cc="http://creativecommons.org/ns#"
   xmlns:dc="http://purl.org/dc/elements/1.1/"><defs
     id="defs1" /><g
     id="layer1"
     transform="translate(-464.70484,189.13218)"><g
       id="g2"
       transform="translate(0,-324.56166)"><path
         style="fill:#333333;fill-opacity:1;stroke:none;stroke-width:2.22238;stroke-dasharray:none"
         d="m 601.84335,136.93655 c -39.33128,17.71968 -41.86133,91.53299 -18.86801,128.03294 5.2638,8.35581 18.75858,11.29982 28.30203,8.76013 21.96218,-5.84448 44.53791,-27.22344 46.49616,-49.86545 0.53146,-6.14488 -4.12189,-14.01197 -10.10785,-15.49872 -11.34867,-2.81869 -20.62317,22.96174 -30.68448,17.00292 -22.46411,-13.30434 1.78419,-55.10066 0.36087,-78.32395 -0.3773,-6.15628 -9.87526,-12.64139 -15.49872,-10.10787 z"
         id="path1" /><path
         style="fill:#333333;fill-opacity:1;stroke:none;stroke-width:2.22238;stroke-dasharray:none"
         d="m 520.67639,273.1056 c 39.33128,-17.7197 41.86135,-91.53302 18.86801,-128.03294 -5.26378,-8.35582 -18.75855,-11.2998 -28.30201,-8.76013 -21.96218,5.84445 -44.53793,27.22344 -46.49618,49.86542 -0.53144,6.14492 4.12187,14.01199 10.10787,15.49874 11.34865,2.81871 20.62315,-22.96176 30.68446,-17.00292 22.46411,13.30437 -1.78419,55.10066 -0.36089,78.32395 0.37734,6.15629 9.87528,12.64139 15.49874,10.10788 z"
         id="path2" /></g></g><metadata
     id="metadata1"><rdf:RDF><cc:Work
         rdf:about=""><dc:creator><cc:Agent><dc:title>CrealStudio</dc:title></cc:Agent></dc:creator></cc:Work></rdf:RDF></metadata></svg>
