<?xml version="1.0" encoding="UTF-8" standalone="no"?>
<!-- Created with Inkscape (http://www.inkscape.org/) -->

<svg
   width="150.00002"
   height="149.99998"
   viewBox="0 0 150.00002 149.99998"
   version="1.1"
   id="svg1"
   xml:space="preserve"
   xmlns="http://www.w3.org/2000/svg"
   xmlns:svg="http://www.w3.org/2000/svg"
   xmlns:rdf="http://www.w3.org/1999/02/22-rdf-syntax-ns#"
   xmlns:cc="http://creativecommons.org/ns#"
   xmlns:dc="http://purl.org/dc/elements/1.1/"><defs
     id="defs1" /><g
     id="layer1"
     transform="translate(-2096.2782,265.43016)"><g
       id="g35"
       transform="matrix(0.59783471,0,0,0.59981173,1962.7835,-479.26304)">
			<g
   id="g3">
				<path
   fill="#ffffff"
   d="m 467.2,490 -20,74.1 c -1.2,6.8 -5.5,12.1 -11.1,14 -3.7,1.3 -7.9,3.7 -11.2,8.2 -3.2,4.5 -8.1,6.7 -13,6.3 -4.4,-0.4 -9.8,0.3 -14.8,4.6 -3.6,3.1 -8.1,4.1 -12.4,2.9 -3.5,-1 -7.8,-1.3 -12.1,1.2 -4.6,2.6 -10,2.4 -14.4,-0.6 -2.2,-1.5 -5,-2.6 -8.5,-2.6 -3.5,0 -6.3,1.1 -8.5,2.6 -4.4,3.1 -9.8,3.3 -14.4,0.6 -4.3,-2.4 -8.7,-2.2 -12.1,-1.2 -4.3,1.3 -8.8,0.2 -12.4,-2.9 -5,-4.3 -10.4,-5 -14.8,-4.6 -4.9,0.5 -9.7,-1.8 -13,-6.3 -3.3,-4.5 -7.5,-6.9 -11.2,-8.2 -5.6,-1.9 -9.9,-7.2 -11.1,-14 L 232,490"
   id="path2" />
				<path
   fill="#606161"
   d="m 333.4,606.5 c -2.9,0 -5.8,-0.8 -8.5,-2.3 -2.8,-1.6 -6,-1.9 -9.5,-0.9 -5.4,1.6 -11.1,0.3 -15.7,-3.6 -3.4,-2.9 -7.6,-4.2 -12.2,-3.8 -6.2,0.6 -12.2,-2.3 -16.1,-7.7 -2.4,-3.3 -5.6,-5.6 -9.5,-6.9 -6.8,-2.3 -12,-8.6 -13.4,-16.5 l -20,-74 6.7,-1.8 20.1,74.4 c 0.9,5.5 4.3,9.8 8.8,11.3 5.3,1.8 9.7,5 12.9,9.4 2.5,3.4 6.1,5.2 9.8,4.9 6.5,-0.6 12.5,1.2 17.4,5.4 2.7,2.3 6,3.1 9.2,2.2 5.2,-1.5 10.4,-1 14.8,1.5 3.5,2 7.4,1.8 10.7,-0.5 3.1,-2.2 6.6,-3.3 10.5,-3.3 3.9,0 7.4,1.1 10.5,3.3 3.3,2.3 7.2,2.5 10.7,0.5 4.5,-2.5 9.6,-3 14.8,-1.5 3.2,0.9 6.4,0.2 9.2,-2.2 4.9,-4.2 10.9,-6 17.4,-5.4 3.8,0.3 7.3,-1.4 9.8,-4.9 3.2,-4.5 7.6,-7.6 12.9,-9.4 4.5,-1.5 7.9,-5.8 8.8,-11.3 l 0.1,-0.3 20,-74.1 6.7,1.8 -20,74 c -1.4,7.9 -6.5,14.2 -13.4,16.5 -3.9,1.3 -7.2,3.7 -9.5,7 -3.9,5.4 -10,8.3 -16.1,7.7 -4.7,-0.4 -8.8,0.8 -12.2,3.8 -4.5,3.9 -10.2,5.2 -15.7,3.6 -3.4,-1 -6.6,-0.7 -9.5,0.9 -5.9,3.3 -12.6,3 -18.1,-0.8 -1.9,-1.3 -4.1,-2 -6.5,-2 -2.4,0 -4.6,0.7 -6.5,2 -2.7,2 -6,3 -9.4,3 z"
   id="path3" />
			</g>
			<g
   id="g5">
				<path
   fill="#ffffff"
   d="m 468.6,466 c -0.4,-1.1 -0.9,-2.1 -1.5,-3.1 -10.5,14.3 -31.5,26.1 -58.5,33.3 -9.9,2.6 -20.7,4.6 -32,5.9 -9,1 -18.3,1.5 -27.9,1.5 -9.6,0 -18.9,-0.5 -27.9,-1.5 -11.3,-1.3 -22.1,-3.3 -32,-5.9 -27,-7.2 -48,-19 -58.5,-33.3 -0.6,1 -1.1,2.1 -1.5,3.1 -7.6,19 6.8,42.7 32.1,52.8 13.5,5.4 27.4,5.8 38.5,2.2 10.8,10.3 28.9,17 49.2,17 20.4,0 38.4,-6.7 49.2,-17 11.2,3.6 25,3.2 38.5,-2.2 25.5,-10.2 39.9,-33.8 32.3,-52.8 z"
   id="path4" />
				<path
   fill="#606161"
   d="m 348.7,541.4 c -19.6,0 -38.2,-6.2 -50.1,-16.6 -11.8,3.3 -26,2.3 -38.9,-2.9 -13,-5.2 -23.6,-13.8 -30.1,-24.5 -6.7,-10.9 -8.1,-22.6 -4,-32.8 0.5,-1.2 1.1,-2.4 1.7,-3.5 l 5.8,-0.4 c 10,13.6 30.1,25 56.6,32 9.9,2.6 20.5,4.6 31.5,5.8 18,2 37,2 55.1,0 11,-1.2 21.6,-3.2 31.5,-5.8 26.5,-7 46.6,-18.4 56.6,-32 l 5.8,0.4 c 0.6,1.1 1.2,2.3 1.7,3.5 4.1,10.2 2.7,21.9 -4,32.8 -6.5,10.6 -17.2,19.3 -30.1,24.5 -12.9,5.1 -27.1,6.2 -38.9,2.9 -12,10.5 -30.5,16.6 -50.2,16.6 z m -50.3,-23.8 3.5,0.8 c 10.6,10.1 28.1,16.1 46.8,16.1 18.7,0 36.2,-6 46.8,-16.1 l 3.5,-0.8 c 4.4,1.4 9.3,2.2 14.4,2.2 7.2,0 14.7,-1.5 21.8,-4.3 11.6,-4.6 21.1,-12.3 26.7,-21.6 5,-8.2 6.5,-16.8 4.2,-24.4 -11.7,12.8 -31.5,23.3 -56.6,30 -10.2,2.7 -21.2,4.7 -32.5,6 -18.5,2 -38.1,2 -56.6,0 -11.4,-1.3 -22.3,-3.3 -32.5,-6 -25.1,-6.7 -44.9,-17.2 -56.6,-30 -2.2,7.6 -0.8,16.2 4.2,24.4 5.7,9.3 15.2,17 26.7,21.6 7.1,2.8 14.6,4.3 21.8,4.3 5.2,0 10,-0.7 14.4,-2.2 z"
   id="path5" />
			</g>
			<g
   id="g6">
				<path
   fill="#fdba63"
   d="M 230.3,462.8"
   id="path6" />
			</g>
			<g
   id="g7">
				<line
   fill="#ffffff"
   x1="277.39999"
   y1="589.90002"
   x2="271.10001"
   y2="534.59998"
   id="line6" />
				
					<rect
   x="246.5"
   y="558.79999"
   transform="matrix(0.1133,0.9936,-0.9936,0.1133,801.8293,225.9919)"
   fill="#606161"
   width="55.599998"
   height="7"
   id="rect7" />
			</g>
			<g
   id="g8">
				<line
   fill="#ffffff"
   x1="301.60001"
   y1="598.29999"
   x2="297.20001"
   y2="541.79999"
   id="line7" />
				
					<rect
   x="271.10001"
   y="566.59998"
   transform="matrix(0.07717457,0.997,-0.997,0.07717457,844.6547,227.506)"
   fill="#606161"
   width="56.700001"
   height="7"
   id="rect8" />
			</g>
			<g
   id="g9">
				<line
   fill="#ffffff"
   x1="421.89999"
   y1="588.5"
   x2="428.20001"
   y2="533.20001"
   id="line8" />
				
					<rect
   x="421.60001"
   y="533"
   transform="matrix(0.9936,0.1133,-0.1133,0.9936,66.2703,-44.5443)"
   fill="#606161"
   width="7"
   height="55.599998"
   id="rect9" />
			</g>
			<g
   id="g14">
				<line
   fill="#ffffff"
   x1="397.79999"
   y1="596.90002"
   x2="402.10001"
   y2="540.40002"
   id="line9" />
				
					<rect
   x="396.5"
   y="540.29999"
   transform="matrix(0.997,0.07733867,-0.07733867,0.997,45.1761,-29.2287)"
   fill="#606161"
   width="7"
   height="56.700001"
   id="rect14" />
			</g>
			<g
   id="g16">
				<line
   fill="#ffffff"
   x1="325.10001"
   y1="601.5"
   x2="324"
   y2="551"
   id="line14" />
				
					<rect
   x="299.29999"
   y="572.79999"
   transform="matrix(0.02270916,0.9997,-0.9997,0.02270916,893.303,238.6994)"
   fill="#606161"
   width="50.5"
   height="7"
   id="rect15" />
			</g>
			<g
   id="g17">
				<line
   fill="#ffffff"
   x1="374.20001"
   y1="601.5"
   x2="375.39999"
   y2="551"
   id="line16" />
				
					<rect
   x="371.29999"
   y="551"
   transform="matrix(0.9997,0.02265486,-0.02265486,0.9997,13.1513,-8.3436)"
   fill="#606161"
   width="7"
   height="50.5"
   id="rect17" />
			</g>
			<g
   id="g18">
				<line
   fill="#ffffff"
   x1="349.70001"
   y1="599.09998"
   x2="349.70001"
   y2="551"
   id="line17" />
				<rect
   x="346.20001"
   y="551"
   fill="#606161"
   width="7"
   height="48.099998"
   id="rect18" />
			</g>
			<g
   id="g19">
				<path
   fill="#fdba63"
   d="m 245.9,488.3 c -20.1,-10.3 -22,-38.4 -3.6,-51.4 20.6,-14.6 54,-29.4 105,-29.4 51.5,0 85.8,14.6 107,28.9 19,12.8 17.5,41.3 -2.8,51.9 -20.9,10.9 -53.9,21.1 -104.2,21.1 -47.7,0.1 -80.4,-10.4 -101.4,-21.1 z"
   id="path18" />
			</g>
			<g
   id="g20">
				<path
   fill="#606161"
   d="m 347.3,513 c -40.4,0 -75,-7.3 -103,-21.6 -10.5,-5.4 -17.3,-15.6 -18.1,-27.5 -0.9,-11.9 4.4,-23.1 14.1,-29.9 19.3,-13.7 53.6,-30 107,-30 53.8,0 89,16.1 109,29.5 10,6.7 15.6,17.9 14.9,30 -0.7,12 -7.4,22.4 -18.1,27.9 C 425.6,505.7 390,513 347.3,513 Z m 0,-102.1 c -51.6,0 -84.5,15.6 -103,28.7 -7.7,5.4 -11.9,14.3 -11.2,23.7 0.7,9.4 6,17.5 14.4,21.8 27,13.8 60.6,20.8 99.8,20.8 41.6,0 76.1,-7 102.6,-20.8 8.4,-4.4 13.8,-12.7 14.3,-22.2 0.5,-9.5 -3.9,-18.4 -11.8,-23.8 -19.2,-12.7 -53,-28.2 -105.1,-28.2 z"
   id="path19" />
			</g>
			<g
   id="g23">
				<path
   fill="#ffffff"
   d="m 325.9,359.9 c 0,0 32.3,19.5 10.7,38 -13.1,11.2 -32.5,29.3 -16,46.8 12.5,13.2 41,13.7 54.2,1.2 9.4,-8.9 9.2,-24.6 6.5,-36.1 -5.9,-25.6 -29.8,-46 -55.4,-49.9 z"
   id="path22" />
				<path
   fill="#606161"
   d="m 348.5,458.5 c 0,0 0,0 0,0 -12.3,0 -23.7,-4.2 -30.4,-11.3 -5.2,-5.4 -7.6,-11.5 -7.3,-17.9 0.6,-12.6 11.7,-23.8 23.5,-34 4.5,-3.9 6.5,-7.8 6.2,-12.1 -0.7,-9 -12.1,-17.7 -16.4,-20.3 l 2.3,-6.4 c 27.8,4.2 52.3,26.3 58.4,52.5 1.4,6.2 5.2,27.4 -7.5,39.5 -6.8,6.3 -17.2,10 -28.8,10 z m -8.3,-90.9 c 3.6,4.2 6.7,9.3 7.2,15 0.5,6.6 -2.3,12.6 -8.6,18 -7.2,6.2 -20.5,17.7 -21.1,29 -0.2,4.5 1.5,8.6 5.4,12.7 5.4,5.7 14.9,9.2 25.3,9.2 0,0 0,0 0,0 9.7,0 18.6,-3 24,-8.1 10,-9.5 6.8,-27.5 5.5,-32.8 -4.2,-18.8 -19.2,-35.2 -37.7,-43 z"
   id="path23" />
			</g>
			<g
   id="g24">
				<path
   fill="#606161"
   d="m 326.8,452.8 c -10.8,-21.8 3.6,-36.4 20.3,-53.3 3.6,-3.6 5,-7.3 4.3,-11.2 -1.9,-11.1 -20.2,-21.9 -27.1,-25.2 l 3,-6.3 c 1.1,0.5 28,13.4 31,30.3 1.1,6.2 -1,12 -6.2,17.3 -18.2,18.4 -27.3,28.7 -19.1,45.3 z"
   id="path24" />
			</g>
			<g
   id="g27">
				<path
   fill="#606161"
   d="m 347.1,458.1 c -0.4,-0.2 -4.4,-2.3 -6.2,-8.2 -2.5,-8.4 0.7,-19.9 9.5,-34.3 6.7,-10.9 8.5,-20.6 5.4,-28.7 -5.1,-13.4 -22,-18.7 -22.2,-18.8 l 2,-6.7 c 0.8,0.3 20.3,6.3 26.7,22.9 3.9,10.2 1.9,21.9 -6,34.8 -10.1,16.6 -9.9,25.1 -8.8,28.7 0.9,2.9 2.5,3.9 2.5,3.9 z"
   id="path27" />
			</g>
			<g
   id="g28">
				<path
   fill="#606161"
   d="m 369.1,453.2 c -0.6,-0.1 -5.8,-1.2 -8.7,-6.7 -3,-5.9 -2,-14.2 3.1,-24.8 5.2,-10.8 4.4,-21.4 -2.2,-31.6 -5.1,-7.8 -11.8,-12.4 -11.8,-12.4 l 3.9,-5.8 c 0.3,0.2 31.4,21.6 16.4,52.8 -3.9,8.2 -5.1,14.8 -3.2,18.5 1.3,2.6 3.7,3.1 3.8,3.1 z"
   id="path28" />
			</g>
			<g
   id="g30">
				<path
   fill="#ffffff"
   d="m 264.9,443.9 c 0,0 31.6,5.2 15.1,11.4 -16.5,6.2 -15.1,-11.4 -15.1,-11.4 z"
   id="path29" />
				<path
   fill="#606161"
   d="m 273.8,460 c -3.4,0 -6.4,-1.2 -8.5,-3.5 -4.3,-4.7 -3.9,-12 -3.8,-12.9 l 4,-3.2 c 22.1,3.6 22.6,8.9 22.7,10.6 0.4,4.6 -5.2,6.7 -7,7.4 -2.7,1.1 -5.2,1.6 -7.4,1.6 z m -5.1,-11.9 c 0.3,1.3 0.8,2.7 1.7,3.6 0.5,0.6 1.4,1.3 3.4,1.3 1.4,0 3.1,-0.4 5,-1.1 0.4,-0.2 0.8,-0.3 1.1,-0.5 -2.2,-1 -6.5,-2.3 -11.2,-3.3 z"
   id="path30" />
			</g>
			<g
   id="g32">
				<path
   fill="#ffffff"
   d="m 425,449.3 c 0,0 -28.9,-2.1 -15.7,6.8 13.2,8.9 15.7,-6.8 15.7,-6.8 z"
   id="path31" />
				<path
   fill="#606161"
   d="m 416.5,462.3 c 0,0 0,0 0,0 -2.8,0 -5.9,-1.1 -9.2,-3.3 -1.5,-1 -6,-4.1 -4.8,-8.2 1.1,-3.7 5.7,-5.2 15.8,-5.2 3.7,0 6.8,0.2 6.9,0.2 l 3.2,4 c -0.7,4.7 -4.1,12.5 -11.9,12.5 z m -5.6,-9.3 c 0.1,0.1 0.2,0.1 0.3,0.2 2.1,1.4 3.9,2.1 5.3,2.1 1.7,0 2.9,-1.3 3.7,-2.8 -0.6,0 -1.2,0 -1.9,0 -3.6,0 -5.9,0.3 -7.4,0.5 z"
   id="path32" />
			</g>
			<g
   id="g34">
				<path
   fill="#ffffff"
   d="m 341.9,472.6 c 0,0 23.2,10.9 8.3,16.5 -14.9,5.6 -8.3,-16.5 -8.3,-16.5 z"
   id="path33" />
				<path
   fill="#606161"
   d="m 345.9,493.5 c -3.6,0 -5.7,-1.8 -6.8,-3.3 -4.2,-5.6 -1.2,-16.5 -0.5,-18.6 l 4.8,-2.1 c 3.7,1.7 15.6,7.9 15.3,15.1 -0.1,3.4 -2.6,6 -7.3,7.8 -2.1,0.7 -3.9,1.1 -5.5,1.1 z m -1.6,-15.7 c -0.5,3.3 -0.6,6.9 0.4,8.2 0.1,0.2 0.3,0.5 1.2,0.5 0.5,0 1.5,-0.1 3,-0.7 2.4,-0.9 2.8,-1.6 2.8,-1.6 -0.1,-1.2 -3.4,-4 -7.4,-6.4 z"
   id="path34" />
			</g>
		</g></g><metadata
     id="metadata1"><rdf:RDF><cc:Work
         rdf:about=""><dc:creator><cc:Agent><dc:title>CrealStudio</dc:title></cc:Agent></dc:creator></cc:Work></rdf:RDF></metadata></svg>
