<?xml version="1.0" encoding="UTF-8" standalone="no"?>
<!-- Created with Inkscape (http://www.inkscape.org/) -->

<svg
   width="150.00002"
   height="150"
   viewBox="0 0 150.00002 150"
   version="1.1"
   id="svg1"
   xml:space="preserve"
   xmlns="http://www.w3.org/2000/svg"
   xmlns:svg="http://www.w3.org/2000/svg"
   xmlns:rdf="http://www.w3.org/1999/02/22-rdf-syntax-ns#"
   xmlns:cc="http://creativecommons.org/ns#"
   xmlns:dc="http://purl.org/dc/elements/1.1/"><defs
     id="defs1" /><g
     id="layer1"
     transform="translate(-2687.4916,249.50882)"><g
       id="g107"
       transform="matrix(0.47588832,0,0,0.65502183,2423.1355,-494.42148)">
			<g
   id="g36">
				<ellipse
   fill="#ffffff"
   cx="713.09998"
   cy="525.29999"
   rx="154.2"
   ry="74.199997"
   id="ellipse35" />
				<path
   fill="#606161"
   d="m 713.1,602.9 c -41.7,0 -81,-7.8 -110.5,-22.1 -30.4,-14.6 -47.1,-34.4 -47.1,-55.6 0,-21.2 16.7,-41 47.1,-55.6 29.6,-14.2 68.8,-22.1 110.5,-22.1 41.7,0 81,7.8 110.5,22.1 30.4,14.6 47.1,34.4 47.1,55.6 0,21.2 -16.7,41 -47.1,55.6 -29.6,14.3 -68.8,22.1 -110.5,22.1 z m 0,-148.4 c -40.7,0 -78.9,7.6 -107.5,21.4 -27.9,13.4 -43.2,30.9 -43.2,49.3 0,18.4 15.3,35.9 43.2,49.3 28.7,13.8 66.9,21.4 107.5,21.4 40.7,0 78.9,-7.6 107.5,-21.4 27.9,-13.4 43.2,-30.9 43.2,-49.3 0,-18.4 -15.3,-35.9 -43.2,-49.3 -28.7,-13.8 -66.9,-21.4 -107.5,-21.4 z"
   id="path35" />
			</g>
			<g
   id="g37">
				<ellipse
   fill="#ffffff"
   cx="711.90002"
   cy="522.20001"
   rx="120.1"
   ry="50.400002"
   id="ellipse36" />
				<path
   fill="#606161"
   d="m 711.9,576.1 c -69.3,0 -123.6,-23.7 -123.6,-53.9 0,-30.2 54.3,-53.9 123.6,-53.9 69.3,0 123.6,23.7 123.6,53.9 -0.1,30.3 -54.4,53.9 -123.6,53.9 z m 0,-100.8 c -63.2,0 -116.6,21.5 -116.6,46.9 0,25.4 53.4,46.9 116.6,46.9 63.2,0 116.6,-21.5 116.6,-46.9 0,-25.4 -53.4,-46.9 -116.6,-46.9 z"
   id="path36" />
			</g>
			<g
   id="g38">
				<path
   fill="#fdba63"
   d="M 813.3,484.2 783.1,407.7 H 646.3 l -35.5,87.7 v 0 c -11.7,20.9 12.5,43.4 59.9,53 53.7,10.8 117,1 141.3,-22 9.4,-8.9 11.6,-18.5 7.6,-27.5 -2.1,-4.9 -4.3,-9.8 -6.3,-14.7 z"
   id="path37" />
			</g>
			<g
   id="g39">
				<path
   fill="#fdba63"
   d="m 814.3,486.5 c -1.1,1.7 -2.6,3.2 -4.4,4.5 -5.4,3.7 -10.9,2.9 -12.4,-1.3 -2.8,-8.2 -5.6,-16.3 -8.4,-24.5 -0.8,-2.4 -2.6,-3.9 -4.8,-4.5 -2.2,-0.6 -4.9,-0.3 -7.4,1.1 -5.2,2.7 -8.5,8.4 -7.3,13.4 1.2,4.9 2.3,9.7 3.5,14.6 0.8,3.5 -1.9,7.8 -6.1,9.3 -4.3,1.6 -8.2,-0.3 -8.8,-3.9 -0.6,-3.3 -1.2,-6.7 -1.7,-10 -0.3,-1.4 -1.1,-2.5 -2.3,-3.2 -1.2,-0.6 -2.7,-0.8 -4.3,-0.4 -3.2,0.8 -5.5,3.7 -5.2,6.6 1.3,10.4 2.5,20.8 3.8,31.3 1,7.5 -6.4,15.6 -16.7,16.6 -10.3,1 -18.5,-5.5 -18.4,-13.2 0,-6.2 0.1,-12.4 0.2,-18.7 0,-2.1 -1,-4 -2.5,-5.5 -1.6,-1.4 -3.7,-2.4 -6.1,-2.6 -4.8,-0.4 -8.9,2.4 -9.3,6.6 -0.2,3 -0.5,5.9 -0.7,8.9 -0.3,3.9 -3.9,6.8 -8.6,6.8 -0.8,0 -1.7,-0.1 -2.5,-0.3 -5.8,-1.2 -9.9,-6.3 -9.1,-10.8 1.4,-8.8 2.8,-17.6 4.2,-26.4 0.4,-2.3 -0.3,-4.6 -1.7,-6.6 -1.3,-2 -3.3,-3.6 -5.7,-4.4 -1.2,-0.4 -2.3,-0.6 -3.4,-0.6 -3.4,0 -6.3,1.9 -7.1,5.2 -1.1,4.7 -2.3,9.4 -3.4,14 -1,4.3 -4.7,6.9 -9.5,6.9 -2.4,0 -5.1,-0.7 -7.8,-2.2 -7.9,-4.3 -12.2,-13.6 -9.8,-19.6 2.5,-6.4 4.9,-12.8 7.3,-19.2 0.5,-1.2 0.4,-2.7 -0.2,-4.1 -0.6,-1.4 -1.5,-2.7 -2.8,-3.7 -1.2,-0.9 -2.5,-1.3 -3.6,-1.2 l 15.4,-38 v 0 h 136.8 v 0 l 30.2,76.5 c -0.1,1.1 0.2,1.9 0.6,2.6 z"
   id="path38" />
			</g>
			<g
   id="g40">
				<path
   fill="#606161"
   d="m 716.4,556.3 c 0,0 0,0 0,0 -16,0 -31.6,-1.5 -46.3,-4.5 -32.9,-6.6 -55.9,-19.5 -63.2,-35.3 -3.4,-7.4 -3.1,-15.2 0.8,-22.4 l 35.4,-87.6 3.2,-2.2 h 136.8 l 3.2,2.2 30.2,76.5 c 1.8,4.5 3.8,9.1 5.8,13.6 l 0.5,1 c 4.7,10.7 1.8,21.9 -8.4,31.4 -17.8,16.8 -55.3,27.3 -98,27.3 z m -102.8,-59.8 0.4,0.6 c -3,5.4 -3.3,11 -0.7,16.4 6.3,13.6 28,25.3 58.3,31.4 14.3,2.9 29.4,4.3 45,4.3 0,0 0,0 0,0 40.3,0 76.9,-10 93.2,-25.4 8.1,-7.6 10.4,-15.6 6.8,-23.6 l -0.5,-1 c -2,-4.5 -4.1,-9.1 -5.9,-13.8 L 780.9,411.1 H 648.7 l -34.6,85.5 z"
   id="path39" />
			</g>
			<g
   id="g51">
				<path
   fill="#fdba63"
   d="m 777,420.2 c -15.7,15.3 -56.2,22.1 -90.6,15.1 -34.4,-6.9 -49.6,-24.9 -33.9,-40.2 15.7,-15.3 56.2,-22.1 90.6,-15.1 34.4,7 49.5,25 33.9,40.2 z"
   id="path42" />
			</g>
			<g
   id="g81">
				<path
   fill="#ffffff"
   d="m 777,420.2 c -15.7,15.3 -56.2,22.1 -90.6,15.1 -34.4,-6.9 -49.6,-24.9 -33.9,-40.2 15.7,-15.3 56.2,-22.1 90.6,-15.1 34.4,7 49.5,25 33.9,40.2 z"
   id="path58" />
				<path
   fill="#606161"
   d="m 714.6,441.6 c -10,0 -19.7,-0.9 -28.9,-2.8 -22.9,-4.6 -38.7,-14.4 -42.1,-26.1 -1.4,-4.8 -1.5,-12.2 6.5,-20 11.9,-11.6 36.7,-18.8 64.8,-18.8 10,0 19.7,0.9 28.9,2.8 22.9,4.6 38.7,14.4 42.1,26.1 1.4,4.8 1.5,12.2 -6.5,20 -11.9,11.5 -36.7,18.8 -64.8,18.8 z m 0.3,-60.8 c -25.9,0 -49.5,6.6 -60,16.9 -4.4,4.3 -6,8.7 -4.7,13 2.7,9.1 16.8,17.2 36.8,21.3 8.7,1.8 18,2.7 27.5,2.7 25.9,0 49.5,-6.6 60,-16.9 4.4,-4.3 6,-8.7 4.7,-13 -2.7,-9.1 -16.8,-17.2 -36.8,-21.3 -8.7,-1.8 -18,-2.7 -27.5,-2.7 z"
   id="path64" />
			</g>
			<g
   id="g101">
				<path
   fill="#fdba63"
   d="m 736.3,412 c -5.4,5.3 -19.4,7.6 -31.2,5.2 -11.9,-2.4 -17.1,-8.6 -11.7,-13.9 5.4,-5.3 19.4,-7.6 31.2,-5.2 11.8,2.4 17.1,8.6 11.7,13.9 z"
   id="path96" />
			</g>
			<g
   id="g102">
				<path
   fill="#606161"
   d="m 714.7,421.6 c -3.6,0 -7.1,-0.3 -10.4,-1 -8.9,-1.8 -14.8,-5.7 -16.3,-10.6 -0.9,-3.2 0.1,-6.5 2.8,-9.2 4.5,-4.4 13.7,-7.1 23.9,-7.1 3.6,0 7.1,0.3 10.4,1 8.9,1.8 14.8,5.7 16.3,10.6 0.9,3.2 -0.1,6.5 -2.8,9.2 -4.4,4.4 -13.6,7.1 -23.9,7.1 z m 0.1,-20.9 c -8.3,0 -15.9,2.1 -19.1,5.2 -1.3,1.3 -1.1,2 -1,2.2 0.5,1.8 4.2,4.4 11,5.8 2.9,0.6 5.9,0.9 9,0.9 8.3,0 15.9,-2.1 19.1,-5.2 1.3,-1.3 1.1,-2 1,-2.2 -0.5,-1.8 -4.2,-4.4 -11,-5.8 -2.8,-0.6 -5.8,-0.9 -9,-0.9 z"
   id="path101" />
			</g>
			<g
   id="g103">
				<path
   fill="#606161"
   d="m 714.7,421.6 c -3.6,0 -7.1,-0.3 -10.4,-1 -8.9,-1.8 -14.8,-5.7 -16.3,-10.6 -0.9,-3.2 0.1,-6.5 2.8,-9.2 4.5,-4.4 13.7,-7.1 23.9,-7.1 3.6,0 7.1,0.3 10.4,1 8.9,1.8 14.8,5.7 16.3,10.6 0.9,3.2 -0.1,6.5 -2.8,9.2 -4.4,4.4 -13.6,7.1 -23.9,7.1 z m 0.1,-20.9 c -8.3,0 -15.9,2.1 -19.1,5.2 -1.3,1.3 -1.1,2 -1,2.2 0.5,1.8 4.2,4.4 11,5.8 2.9,0.6 5.9,0.9 9,0.9 8.3,0 15.9,-2.1 19.1,-5.2 1.3,-1.3 1.1,-2 1,-2.2 -0.5,-1.8 -4.2,-4.4 -11,-5.8 -2.8,-0.6 -5.8,-0.9 -9,-0.9 z"
   id="path102" />
			</g>
			<g
   id="g106">
				<g
   id="g104">
					<path
   fill="#ffffff"
   d="m 814.3,486.5 c -1.1,1.7 -2.6,3.2 -4.4,4.5 -5.4,3.7 -10.9,2.9 -12.4,-1.3 -2.8,-8.2 -5.6,-16.3 -8.4,-24.5 -0.8,-2.4 -2.6,-3.9 -4.8,-4.5 -2.2,-0.6 -4.9,-0.3 -7.4,1.1 -5.2,2.7 -8.5,8.4 -7.3,13.4 1.2,4.9 2.3,9.7 3.5,14.6 0.8,3.5 -1.9,7.8 -6.1,9.3 -4.3,1.6 -8.2,-0.3 -8.8,-3.9 -0.6,-3.3 -1.2,-6.7 -1.7,-10 -0.3,-1.4 -1.1,-2.5 -2.3,-3.2 -1.2,-0.6 -2.7,-0.8 -4.3,-0.4 -3.2,0.8 -5.5,3.7 -5.2,6.6 1.3,10.4 2.5,20.8 3.8,31.3 1,7.5 -6.4,15.6 -16.7,16.6 -10.3,1 -18.5,-5.5 -18.4,-13.2 0,-6.2 0.1,-12.4 0.2,-18.7 0,-2.1 -1,-4 -2.5,-5.5 -1.6,-1.4 -3.7,-2.4 -6.1,-2.6 -4.8,-0.4 -8.9,2.4 -9.3,6.6 -0.2,3 -0.5,5.9 -0.7,8.9 -0.3,3.9 -3.9,6.8 -8.6,6.8 -0.8,0 -1.7,-0.1 -2.5,-0.3 -5.8,-1.2 -9.9,-6.3 -9.1,-10.8 1.4,-8.8 2.8,-17.6 4.2,-26.4 0.4,-2.3 -0.3,-4.6 -1.7,-6.6 -1.3,-2 -3.3,-3.6 -5.7,-4.4 -1.2,-0.4 -2.3,-0.6 -3.4,-0.6 -3.4,0 -6.3,1.9 -7.1,5.2 -1.1,4.7 -2.3,9.4 -3.4,14 -1,4.3 -4.7,6.9 -9.5,6.9 -2.4,0 -5.1,-0.7 -7.8,-2.2 -7.9,-4.3 -12.2,-13.6 -9.8,-19.6 2.5,-6.4 4.9,-12.8 7.3,-19.2 0.5,-1.2 0.4,-2.7 -0.2,-4.1 -0.6,-1.4 -1.5,-2.7 -2.8,-3.7 -1.2,-0.9 -2.5,-1.3 -3.6,-1.2 l 15.4,-38 c 0,11.6 14.9,22.6 40.1,27.6 34.4,6.9 75,0.2 90.6,-15.1 4.2,-4.1 6.1,-8.3 6.2,-12.5 l 30.2,76.5 c -0.2,1.1 0.1,1.9 0.5,2.6 z"
   id="path103" />
				</g>
				<g
   id="g105">
					<path
   fill="#606161"
   d="m 729.4,539.7 c -5.9,0 -11.5,-2.2 -15.2,-6 -3,-3 -4.5,-6.9 -4.5,-10.8 0,-6.2 0.1,-12.4 0.2,-18.6 0,-1.4 -0.9,-2.4 -1.4,-2.9 -1,-0.9 -2.5,-1.5 -4,-1.6 -0.2,0 -0.4,0 -0.6,0 -2.7,0 -4.8,1.5 -5,3.5 l -0.7,8.9 c -0.4,5.8 -5.5,10 -12.1,10 -1.1,0 -2.2,-0.1 -3.3,-0.3 -7.5,-1.6 -12.9,-8.3 -11.8,-14.8 l 4.2,-26.3 c 0.2,-1.3 -0.2,-2.7 -1.1,-4.1 -0.9,-1.4 -2.4,-2.5 -4,-3.1 -0.8,-0.3 -1.5,-0.4 -2.3,-0.4 -0.9,0 -3.1,0.3 -3.7,2.6 l -3.4,14 c -1.3,5.8 -6.4,9.5 -12.8,9.5 -3.1,0 -6.4,-0.9 -9.5,-2.6 -9.3,-5.1 -14.5,-16 -11.4,-23.9 2.3,-6 4.6,-12 6.9,-18.1 l 0.4,-1.1 c 0.1,-0.3 0.1,-0.9 -0.2,-1.6 -0.3,-0.8 -0.9,-1.6 -1.6,-2.1 -0.7,-0.5 -1.2,-0.6 -1.4,-0.6 l -3.4,-4.8 15.4,-38 6.7,1.3 c 0,10 15,19.7 37.3,24.2 8.7,1.8 18,2.7 27.6,2.7 25.9,0 49.5,-6.6 59.9,-16.8 3.4,-3.3 5.1,-6.7 5.1,-10 l 6.7,-1.3 30.2,76.5 c 0.3,0.8 0.6,1.5 0.9,2.3 l -0.3,3.3 c -1.4,2.1 -3.2,4 -5.3,5.4 -2.8,2 -5.8,3 -8.7,3 -4.2,0 -7.7,-2.3 -8.9,-6.1 -2.8,-8.1 -5.6,-16.3 -8.4,-24.5 -0.4,-1.1 -1.2,-1.9 -2.5,-2.2 -0.4,-0.1 -0.8,-0.1 -1.3,-0.1 -1.2,0 -2.4,0.3 -3.7,1 -3.8,2 -6.3,6.2 -5.5,9.6 1.2,4.8 2.3,9.7 3.5,14.5 1.3,5.2 -2.5,11.3 -8.3,13.4 -1.4,0.5 -2.8,0.8 -4.2,0.8 -4.7,0 -8.5,-3 -9.3,-7.3 l -1.7,-10 c 0,-0.2 -0.1,-0.5 -0.5,-0.7 -0.4,-0.2 -1.1,-0.3 -1.8,-0.1 -1.7,0.4 -2.7,1.9 -2.6,2.9 l 3.8,31.2 c 0.5,4 -0.7,8.3 -3.6,12 -3.8,4.8 -9.7,7.9 -16.2,8.5 -1,-0.3 -1.8,-0.3 -2.6,-0.3 z m -25.5,-46.9 c 0.4,0 0.7,0 1.1,0 3.1,0.2 6,1.5 8.2,3.4 2.4,2.2 3.7,5.1 3.7,8.1 -0.1,6.2 -0.1,12.4 -0.2,18.7 -0.1,2.7 1.3,4.6 2.5,5.8 2.8,2.9 7.3,4.3 12.1,3.8 4.6,-0.4 8.9,-2.7 11.4,-5.9 1.7,-2.2 2.5,-4.6 2.2,-6.8 l -3.8,-31.3 c -0.5,-4.6 2.9,-9.2 7.7,-10.4 2.3,-0.6 4.8,-0.4 6.8,0.7 2.2,1.2 3.7,3.2 4.1,5.7 l 1.7,10 c 0.2,1.1 1.4,1.5 2.4,1.5 0.6,0 1.2,-0.1 1.8,-0.3 2.7,-1 4.4,-3.6 4,-5.2 -1.2,-4.9 -2.3,-9.7 -3.5,-14.6 -1.5,-6.5 2.4,-13.9 9.1,-17.3 3.2,-1.7 6.8,-2.1 9.9,-1.3 3.5,0.9 6.1,3.4 7.3,6.7 2.8,8.2 5.6,16.4 8.4,24.5 0.3,0.9 1.1,1.4 2.3,1.4 1.4,0 3.1,-0.6 4.8,-1.8 0.9,-0.6 1.7,-1.3 2.4,-2.1 -0.1,-0.2 -0.1,-0.4 -0.2,-0.6 l -26.6,-67.6 c -1.1,1.7 -2.4,3.3 -4,4.8 -11.9,11.6 -36.7,18.8 -64.8,18.8 -10,0 -19.7,-0.9 -28.9,-2.8 -19.7,-4 -33.8,-11.6 -39.7,-20.9 l -10.4,25.6 c 0.3,0.2 0.7,0.4 1,0.7 1.8,1.3 3.2,3.1 4,5.2 0.9,2.3 1,4.7 0.2,6.7 l -0.4,1.1 c -2.3,6 -4.6,12.1 -6.9,18.1 -1.6,4.1 1.6,11.7 8.2,15.3 2.1,1.1 4.2,1.7 6.1,1.7 3.2,0 5.5,-1.6 6.1,-4.2 l 3.4,-14.1 c 1.2,-4.8 5.3,-7.9 10.5,-7.9 1.5,0 3.1,0.3 4.6,0.8 3,1.1 5.6,3.1 7.4,5.7 1.9,2.8 2.7,6 2.2,9.1 l -4.2,26.4 c -0.4,2.5 2.2,6 6.4,6.8 0.6,0.1 1.2,0.2 1.8,0.2 2.8,0 5,-1.5 5.2,-3.5 l 0.7,-8.9 c 0.5,-5.7 5.5,-9.8 11.9,-9.8 z"
   id="path104" />
				</g>
			</g>
		</g></g><metadata
     id="metadata1"><rdf:RDF><cc:Work
         rdf:about=""><dc:creator><cc:Agent><dc:title>CrealStudio</dc:title></cc:Agent></dc:creator></cc:Work></rdf:RDF></metadata></svg>
