<?xml version="1.0" encoding="UTF-8" standalone="no"?>
<!-- Created with Inkscape (http://www.inkscape.org/) -->

<svg
   width="150.00002"
   height="150"
   viewBox="0 0 150.00002 150"
   version="1.1"
   id="svg1"
   xml:space="preserve"
   xmlns="http://www.w3.org/2000/svg"
   xmlns:svg="http://www.w3.org/2000/svg"
   xmlns:rdf="http://www.w3.org/1999/02/22-rdf-syntax-ns#"
   xmlns:cc="http://creativecommons.org/ns#"
   xmlns:dc="http://purl.org/dc/elements/1.1/"><defs
     id="defs1" /><g
     id="layer1"
     transform="translate(-2394.2438,255.82692)"><g
       id="g125"
       transform="matrix(0.63131313,0,0,0.72604066,1800.9987,-745.25093)">
			<g
   id="g108">
				<ellipse
   fill="#ffffff"
   cx="1058.5"
   cy="811"
   rx="115.4"
   ry="66.300003"
   id="ellipse107" />
				<path
   fill="#606161"
   d="m 1058.5,880.7 c -31.4,0 -61,-7.1 -83.3,-19.9 -22.9,-13.2 -35.5,-30.9 -35.5,-49.9 0,-19 12.6,-36.7 35.5,-49.9 22.3,-12.8 51.9,-19.9 83.3,-19.9 31.4,0 61,7.1 83.3,19.9 22.9,13.2 35.5,30.9 35.5,49.9 0,19 -12.6,36.7 -35.5,49.9 -22.3,12.9 -51.9,19.9 -83.3,19.9 z m 0,-132.5 c -61.7,0 -111.9,28.2 -111.9,62.8 0,34.6 50.2,62.8 111.9,62.8 61.7,0 111.9,-28.2 111.9,-62.8 0,-34.6 -50.2,-62.8 -111.9,-62.8 z"
   id="path107" />
			</g>
			<g
   id="g111">
				<g
   id="g109">
					<ellipse
   fill="#fdba63"
   cx="1058.5"
   cy="787.79999"
   rx="115.4"
   ry="66.300003"
   id="ellipse108" />
				</g>
				<g
   id="g110">
					<path
   fill="#606161"
   d="m 1058.5,857.6 c -31.4,0 -61,-7.1 -83.3,-19.9 -22.9,-13.2 -35.5,-30.9 -35.5,-49.9 0,-19 12.6,-36.7 35.5,-49.9 22.3,-12.8 51.9,-19.9 83.3,-19.9 31.4,0 61,7.1 83.3,19.9 22.9,13.2 35.5,30.9 35.5,49.9 0,19 -12.6,36.7 -35.5,49.9 -22.3,12.8 -51.9,19.9 -83.3,19.9 z m 0,-132.6 c -61.7,0 -111.9,28.2 -111.9,62.8 0,34.6 50.2,62.8 111.9,62.8 61.7,0 111.9,-28.2 111.9,-62.8 0,-34.6 -50.2,-62.8 -111.9,-62.8 z"
   id="path109" />
				</g>
			</g>
			<g
   id="g112">
				<ellipse
   fill="#ffffff"
   cx="1058.5"
   cy="767.09998"
   rx="115.4"
   ry="66.300003"
   id="ellipse111" />
				<path
   fill="#606161"
   d="m 1058.5,836.8 c -31.4,0 -61,-7.1 -83.3,-19.9 -22.9,-13.2 -35.5,-30.9 -35.5,-49.9 0,-19 12.6,-36.7 35.5,-49.9 22.3,-12.8 51.9,-19.9 83.3,-19.9 31.4,0 61,7.1 83.3,19.9 22.9,13.2 35.5,30.9 35.5,49.9 0,19 -12.6,36.7 -35.5,49.9 -22.3,12.9 -51.9,19.9 -83.3,19.9 z m 0,-132.5 c -61.7,0 -111.9,28.2 -111.9,62.8 0,34.6 50.2,62.8 111.9,62.8 61.7,0 111.9,-28.2 111.9,-62.8 0,-34.6 -50.2,-62.8 -111.9,-62.8 z"
   id="path111" />
			</g>
			<g
   id="g115">
				<g
   id="g113">
					<ellipse
   fill="#fdba63"
   cx="1058.5"
   cy="743.90002"
   rx="115.4"
   ry="66.300003"
   id="ellipse112" />
				</g>
				<g
   id="g114">
					<path
   fill="#606161"
   d="m 1058.5,813.7 c -31.4,0 -61,-7.1 -83.3,-19.9 -22.9,-13.2 -35.5,-30.9 -35.5,-49.9 0,-19 12.6,-36.7 35.5,-49.9 22.3,-12.8 51.9,-19.9 83.3,-19.9 31.4,0 61,7.1 83.3,19.9 22.9,13.2 35.5,30.9 35.5,49.9 0,19 -12.6,36.7 -35.5,49.9 -22.3,12.8 -51.9,19.9 -83.3,19.9 z m 0,-132.6 c -61.7,0 -111.9,28.2 -111.9,62.8 0,34.6 50.2,62.8 111.9,62.8 61.7,0 111.9,-28.2 111.9,-62.8 0,-34.6 -50.2,-62.8 -111.9,-62.8 z"
   id="path113" />
				</g>
			</g>
			<g
   id="g122">
				<g
   id="g116">
					<path
   fill="#ffffff"
   d="m 1111.6,730.9 h -106.2 l 25.9,-12.9 c 1.9,1.2 4.1,1.8 6.5,1.8 6.5,0 11.9,-5 12.4,-11.4 l 21.4,-11.1 c 1.4,2.7 4.1,4.5 7.4,4.5 3,0 5.7,-1.6 7.1,-4.1 7.7,5.3 19.7,16 25.5,33.2 z"
   id="path115" />
					<path
   fill="#606161"
   d="m 1111.6,734.4 h -106.2 l -1.6,-6.6 25.9,-12.9 3.4,0.1 c 1.4,0.9 3,1.3 4.7,1.3 4.6,0 8.6,-3.6 8.9,-8.2 l 1.9,-2.8 21.4,-11.1 4.7,1.5 c 0.8,1.6 2.4,2.6 4.3,2.6 1.7,0 3.2,-0.9 4.1,-2.3 l 5,-1.1 c 7.4,5.1 20.7,16.3 26.9,34.9 z m -91.5,-7 h 86.4 c -5.3,-12.2 -13.9,-20.4 -20,-25 -2.1,1.8 -4.8,2.9 -7.7,2.9 -3.2,0 -6.2,-1.3 -8.4,-3.5 l -17.2,8.9 c -1.5,7.2 -8,12.6 -15.6,12.6 -2.3,0 -4.5,-0.5 -6.5,-1.4 z"
   id="path116" />
				</g>
				<g
   id="g118">
					<path
   fill="#ffffff"
   d="m 1111.6,730.9 v 36.6 h -10.3 c 0.1,-0.3 0.1,-0.7 0.1,-1 0,-5.2 -4.2,-9.4 -9.4,-9.4 -5.2,0 -9.4,4.2 -9.4,9.4 0,0.3 0,0.7 0.1,1 h -77.2 v -36.6 z"
   id="path117" />
					<path
   fill="#606161"
   d="m 1111.6,771 h -10.3 l -3.4,-4 c 0,-0.2 0,-0.3 0,-0.5 0,-3.3 -2.7,-5.9 -5.9,-5.9 -3.3,0 -5.9,2.7 -5.9,5.9 0,0.2 0,0.3 0,0.5 l -3.4,4 h -77.2 l -3.5,-3.5 v -36.6 l 3.5,-3.5 h 106.2 l 3.5,3.5 v 36.6 z m -7,-6.9 h 3.5 v -29.7 h -99.3 v 29.7 h 70.4 c 1.1,-5.9 6.4,-10.4 12.6,-10.4 6.4,-0.1 11.6,4.4 12.8,10.4 z"
   id="path118" />
				</g>
				<g
   id="g119">
					<ellipse
   fill="#ffffff"
   cx="1014.6"
   cy="760.09998"
   rx="9.1999998"
   ry="7.4000001"
   id="ellipse118" />
					<path
   fill="#606161"
   d="m 1014.6,771 c -7,0 -12.7,-4.9 -12.7,-10.9 0,-6 5.7,-10.9 12.7,-10.9 7,0 12.7,4.9 12.7,10.9 0,6 -5.7,10.9 -12.7,10.9 z m 0,-14.8 c -3.1,0 -5.7,1.8 -5.7,3.9 0,2.1 2.6,3.9 5.7,3.9 3.1,0 5.7,-1.8 5.7,-3.9 0,-2.1 -2.6,-3.9 -5.7,-3.9 z"
   id="path119" />
				</g>
				<g
   id="g120">
					<ellipse
   fill="#ffffff"
   cx="1057.8"
   cy="738"
   rx="7"
   ry="5.6999998"
   id="ellipse119" />
					<path
   fill="#606161"
   d="m 1057.8,747.2 c -5.8,0 -10.4,-4.1 -10.4,-9.2 0,-5.1 4.7,-9.2 10.4,-9.2 5.7,0 10.4,4.1 10.4,9.2 0,5.1 -4.7,9.2 -10.4,9.2 z m 0,-11.4 c -2,0 -3.5,1.2 -3.5,2.2 0,1 1.5,2.2 3.5,2.2 2,0 3.5,-1.2 3.5,-2.2 0,-1 -1.5,-2.2 -3.5,-2.2 z"
   id="path120" />
				</g>
				<g
   id="g121">
					<ellipse
   fill="#ffffff"
   cx="1082.6"
   cy="721.79999"
   rx="7.0999999"
   ry="5.3000002"
   id="ellipse120" />
					<path
   fill="#606161"
   d="m 1082.6,730.6 c -5.9,0 -10.6,-3.9 -10.6,-8.8 0,-4.9 4.6,-8.8 10.6,-8.8 5.9,0 10.6,3.9 10.6,8.8 0,4.9 -4.7,8.8 -10.6,8.8 z m 0,-10.7 c -2.3,0 -3.6,1.2 -3.6,1.9 0,0.7 1.4,1.9 3.6,1.9 2.3,0 3.6,-1.2 3.6,-1.9 0,-0.7 -1.3,-1.9 -3.6,-1.9 z"
   id="path121" />
				</g>
			</g>
			<g
   id="g123">
				<path
   fill="#fdba63"
   d="m 1110.7,803.1 v 14.4 c 0,4.4 -3.4,9.9 -7.6,11.9 -4.3,2 -7.8,-0.4 -7.8,-4.8 v -1.1 c 0,-2.7 -1.1,-4.7 -2.8,-5.9 -1.7,-1.2 -4.2,-1.5 -6.9,-0.8 -5.4,1.4 -9.9,6.4 -9.9,11.8 0,0 0,0 0,0 v 0 12 c 0,5.4 -4.4,10.5 -10,10.9 -5.5,0.4 -10.1,-4.1 -10.1,-9.4 V 834 l -0.3,-2.6 c -0.5,-2.4 -1.7,-4.5 -3.4,-6.2 -2.3,-2.3 -5.5,-4 -9,-4.5 -7,-1 -12.5,3 -12.5,9.8 v 29.9 c 0,5.7 -3.7,9.6 -8.7,9.6 -1.3,0 -2.8,-0.3 -4.3,-0.9 -7,-2.8 -12.5,-11.8 -12.5,-19 v -47.5 c 16,4.8 34.2,7.6 53.6,7.6 18.8,0 36.5,-2.5 52.2,-7.1 z"
   id="path122" />
			</g>
			<g
   id="g124">
				<path
   fill="#606161"
   d="m 1021.6,873.5 c -1.8,0 -3.7,-0.4 -5.6,-1.1 -8.1,-3.2 -14.7,-13.2 -14.7,-22.2 v -47.5 l 4.5,-3.3 c 16.1,4.9 34.3,7.4 52.6,7.4 18.1,0 35.3,-2.4 51.2,-7 l 4.4,3.3 v 14.4 c 0,6 -4.2,12.6 -9.6,15.1 -3.9,1.8 -8,1.1 -10.5,-1.6 -1.5,-1.6 -2.3,-3.8 -2.3,-6.3 v -1.1 c 0,-1 -0.2,-2.3 -1.3,-3 -1,-0.6 -2.4,-0.7 -4.1,-0.3 -4,1.1 -7.3,4.8 -7.3,8.4 v 0 0 12 c 0,7.3 -6,13.8 -13.2,14.4 -0.3,0 -0.6,0 -1,0 -3.5,0 -6.7,-1.4 -9.1,-3.9 -2.4,-2.4 -3.7,-5.7 -3.7,-9.1 v -7.9 l -0.2,-2.2 c -0.4,-1.6 -1.3,-3.1 -2.5,-4.4 -1.8,-1.9 -4.3,-3.1 -7,-3.5 -0.5,-0.1 -1.1,-0.1 -1.6,-0.1 -3.4,0 -7,1.7 -7,6.5 v 29.9 c 0.2,7.5 -5,13.1 -12,13.1 z m -13.2,-66.2 v 42.9 c 0,6.1 4.9,13.6 10.3,15.8 1,0.4 2,0.6 3,0.6 3.1,0 5.3,-2.5 5.3,-6.1 v -29.9 c 0,-7.8 5.9,-13.4 14,-13.4 0.8,0 1.7,0.1 2.5,0.2 4.2,0.6 8.1,2.5 11,5.5 2.2,2.2 3.7,4.9 4.4,7.9 l 0.1,0.4 0.3,3 v 8.1 c 0,1.6 0.6,3.1 1.7,4.2 1.2,1.2 2.9,1.9 4.6,1.7 3.6,-0.3 6.8,-3.7 6.8,-7.4 v -12 c 0,-6.8 5.4,-13.3 12.5,-15.1 3.6,-1 7.1,-0.5 9.7,1.2 2.8,1.8 4.4,5 4.4,8.7 v 1.1 c 0,0.7 0.2,1.3 0.5,1.7 0.1,0.1 0.4,0.3 0.9,0.3 0.4,0 1,-0.1 1.5,-0.4 2.9,-1.3 5.6,-5.5 5.6,-8.7 v -9.8 c -15.3,4 -31.7,6.1 -48.7,6.1 -17.6,-0.2 -34.8,-2.4 -50.4,-6.6 z"
   id="path123" />
			</g>
		</g></g><metadata
     id="metadata1"><rdf:RDF><cc:Work
         rdf:about=""><dc:creator><cc:Agent><dc:title>CrealStudio</dc:title></cc:Agent></dc:creator></cc:Work></rdf:RDF></metadata></svg>
