<?xml version="1.0" encoding="UTF-8" standalone="no"?>
<!-- Created with Inkscape (http://www.inkscape.org/) -->

<svg
   width="700"
   height="700"
   viewBox="0 0 700.00003 700"
   version="1.1"
   id="svg1"
   xml:space="preserve"
   xmlns="http://www.w3.org/2000/svg"
   xmlns:svg="http://www.w3.org/2000/svg"
   xmlns:rdf="http://www.w3.org/1999/02/22-rdf-syntax-ns#"
   xmlns:cc="http://creativecommons.org/ns#"
   xmlns:dc="http://purl.org/dc/elements/1.1/"><defs
     id="defs1" /><g
     id="layer1"
     transform="translate(-4555.7723,-167.08313)"><g
       id="g2"
       style="stroke:#333333;stroke-opacity:1"><path
         opacity="0.4"
         d="m 4905.7661,582.19941 h 32.5581 c 35.814,0 65.1163,-29.30233 65.1163,-65.11628 v -325.5814 h -293.0246 c -48.8372,0 -91.488,27.02293 -113.6276,66.74386"
         stroke="#292d32"
         stroke-width="48.8372"
         stroke-linecap="round"
         stroke-linejoin="round"
         id="path1-4"
         style="opacity:1;fill:none;stroke:#333333;stroke-opacity:1" /><path
         d="m 4580.1912,679.87383 c 0,54.04651 43.6279,97.67442 97.6744,97.67442 h 32.5581 c 0,-35.81395 29.3024,-65.11628 65.1163,-65.11628 35.814,0 65.1163,29.30233 65.1163,65.11628 h 130.2326 c 0,-35.81395 29.3023,-65.11628 65.1162,-65.11628 35.814,0 65.1163,29.30233 65.1163,65.11628 h 32.5582 c 54.0465,0 97.6744,-43.62791 97.6744,-97.67442 v -97.67442 h -97.6744 c -17.907,0 -32.5582,-14.65116 -32.5582,-32.55814 v -97.67442 c 0,-17.90698 14.6512,-32.55814 32.5582,-32.55814 h 42 l -55.6745,-97.34851 c -11.7209,-20.18605 -33.2093,-32.88405 -56.6511,-32.88405 h -59.907 v 227.90698 c 0,35.81395 -29.3023,65.11628 -65.1163,65.11628 h -32.5581"
         stroke="#292d32"
         stroke-width="48.8372"
         stroke-linecap="round"
         stroke-linejoin="round"
         id="path2"
         style="fill:none;stroke:#333333;stroke-opacity:1" /><path
         d="m 4775.54,842.66453 c 35.9628,0 65.1163,-29.15256 65.1163,-65.11628 0,-35.96372 -29.1535,-65.11628 -65.1163,-65.11628 -35.9627,0 -65.1163,29.15256 -65.1163,65.11628 0,35.96372 29.1536,65.11628 65.1163,65.11628 z"
         stroke="#292d32"
         stroke-width="48.8372"
         stroke-linecap="round"
         stroke-linejoin="round"
         id="path3-8"
         style="fill:none;stroke:#333333;stroke-opacity:1" /><path
         d="m 5036.0051,842.66453 c 35.9638,0 65.1163,-29.15256 65.1163,-65.11628 0,-35.96372 -29.1525,-65.11628 -65.1163,-65.11628 -35.9637,0 -65.1162,29.15256 -65.1162,65.11628 0,35.96372 29.1525,65.11628 65.1162,65.11628 z"
         stroke="#292d32"
         stroke-width="48.8372"
         stroke-linecap="round"
         stroke-linejoin="round"
         id="path4-2"
         style="fill:none;stroke:#333333;stroke-opacity:1" /><path
         d="m 5231.354,517.08313 v 65.11628 h -97.6744 c -17.907,0 -32.5582,-14.65116 -32.5582,-32.55814 v -97.67442 c 0,-17.90698 14.6512,-32.55814 32.5582,-32.55814 h 42 z"
         stroke="#292d32"
         stroke-width="48.8372"
         stroke-linecap="round"
         stroke-linejoin="round"
         id="path5-4"
         style="fill:none;stroke:#333333;stroke-opacity:1" /><path
         d="M 4580.1912,386.85057 H 4775.54"
         stroke="#292d32"
         stroke-width="48.8372"
         stroke-linecap="round"
         stroke-linejoin="round"
         id="path6"
         style="fill:none;stroke:#333333;stroke-opacity:1" /><path
         d="m 4580.1912,484.52499 h 130.2325"
         stroke="#292d32"
         stroke-width="48.8372"
         stroke-linecap="round"
         stroke-linejoin="round"
         id="path7-5"
         style="fill:none;stroke:#333333;stroke-opacity:1" /><path
         d="m 4580.1912,582.19941 h 65.1163"
         stroke="#292d32"
         stroke-width="48.8372"
         stroke-linecap="round"
         stroke-linejoin="round"
         id="path8-5"
         style="fill:none;stroke:#333333;stroke-opacity:1" /></g></g><metadata
     id="metadata1"><rdf:RDF><cc:Work
         rdf:about=""><dc:creator><cc:Agent><dc:title>CrealStudio</dc:title></cc:Agent></dc:creator></cc:Work></rdf:RDF></metadata></svg>
