<?xml version="1.0" encoding="UTF-8" standalone="no"?>
<!-- Created with Inkscape (http://www.inkscape.org/) -->

<svg
   width="716.66663"
   height="716.66663"
   viewBox="0 0 716.66666 716.66662"
   version="1.1"
   id="svg1"
   xml:space="preserve"
   xmlns="http://www.w3.org/2000/svg"
   xmlns:svg="http://www.w3.org/2000/svg"
   xmlns:rdf="http://www.w3.org/1999/02/22-rdf-syntax-ns#"
   xmlns:cc="http://creativecommons.org/ns#"
   xmlns:dc="http://purl.org/dc/elements/1.1/"><defs
     id="defs1" /><g
     id="layer1"
     transform="translate(-1420.1899,233.43605)"><g
       style="fill:none"
       id="g2"
       transform="matrix(33.333333,0,0,33.333333,1378.5231,-275.10272)"><path
         opacity="0.4"
         d="m 11.9998,14 h 1 c 1.1,0 2,-0.9 2,-2 V 2 H 5.99976 c -1.5,0 -2.80999,0.82999 -3.48999,2.04999"
         stroke="#292d32"
         stroke-width="1.5"
         stroke-linecap="round"
         stroke-linejoin="round"
         id="path1-4"
         style="opacity:1;fill:none;stroke:#000000;stroke-opacity:1" /><path
         d="m 2,17 c 0,1.66 1.34,3 3,3 h 1 c 0,-1.1 0.9,-2 2,-2 1.1,0 2,0.9 2,2 h 4 c 0,-1.1 0.9,-2 2,-2 1.1,0 2,0.9 2,2 h 1 c 1.66,0 3,-1.34 3,-3 v -3 h -3 c -0.55,0 -1,-0.45 -1,-1 v -3 c 0,-0.55 0.45,-1 1,-1 h 1.29 L 18.58,6.01001 C 18.22,5.39001 17.56,5 16.84,5 H 15 v 7 c 0,1.1 -0.9,2 -2,2 h -1"
         stroke="#292d32"
         stroke-width="1.5"
         stroke-linecap="round"
         stroke-linejoin="round"
         id="path2"
         style="stroke:#000000;stroke-opacity:1" /><path
         d="m 8,22 c 1.10457,0 2,-0.8954 2,-2 0,-1.1046 -0.89543,-2 -2,-2 -1.10457,0 -2,0.8954 -2,2 0,1.1046 0.89543,2 2,2 z"
         stroke="#292d32"
         stroke-width="1.5"
         stroke-linecap="round"
         stroke-linejoin="round"
         id="path3"
         style="stroke:#000000;stroke-opacity:1" /><path
         d="m 16,22 c 1.1046,0 2,-0.8954 2,-2 0,-1.1046 -0.8954,-2 -2,-2 -1.1046,0 -2,0.8954 -2,2 0,1.1046 0.8954,2 2,2 z"
         stroke="#292d32"
         stroke-width="1.5"
         stroke-linecap="round"
         stroke-linejoin="round"
         id="path4"
         style="stroke:#000000;stroke-opacity:1" /><path
         d="m 22,12 v 2 h -3 c -0.55,0 -1,-0.45 -1,-1 v -3 c 0,-0.55 0.45,-1 1,-1 h 1.29 z"
         stroke="#292d32"
         stroke-width="1.5"
         stroke-linecap="round"
         stroke-linejoin="round"
         id="path5"
         style="stroke:#000000;stroke-opacity:1" /><path
         d="M 2,8 H 8"
         stroke="#292d32"
         stroke-width="1.5"
         stroke-linecap="round"
         stroke-linejoin="round"
         id="path6"
         style="stroke:#000000;stroke-opacity:1" /><path
         d="M 2,11 H 6"
         stroke="#292d32"
         stroke-width="1.5"
         stroke-linecap="round"
         stroke-linejoin="round"
         id="path7"
         style="stroke:#000000;stroke-opacity:1" /><path
         d="M 2,14 H 4"
         stroke="#292d32"
         stroke-width="1.5"
         stroke-linecap="round"
         stroke-linejoin="round"
         id="path8"
         style="stroke:#000000;stroke-opacity:1" /></g></g><metadata
     id="metadata1"><rdf:RDF><cc:Work
         rdf:about=""><dc:creator><cc:Agent><dc:title>CrealStudio</dc:title></cc:Agent></dc:creator></cc:Work></rdf:RDF></metadata></svg>
